PathFileType	4	(X/Y/Z)	Walk5.trc
DataRate	CameraRate	NumFrames	NumMarkers	Units	OrigDataRate	OrigDataStartFrame	OrigNumFrames
200.000000	200.000000	4	59	mm	200.000000	482	561
Frame#	Times		LFHD		C7		CLAV		STRN		RBack		LASI		RASI		RACR1		RUA1		RElbow		RFA1		RWRU		RCAR		LACR1		LFA1		LWRR		LCAR		RTH1		RTH2		RTH4		RLFC		LTH1		LTH3		LTH2		LLFC		LTB1		LTB3		LTB2		LTB4		LMT1		LToe		LMMAL		T10		RWRR		LMT5		LTH4		RFHD		LLMAL		RTH3		LPSI		RPSI		RBHD		LElbowM		RMT1		LUA1		RTB1		RMMAL		LBHD		LElbow		RTB2		RTB4		LWRU		RMT5		RElbowM		RTB3		RToe		RLMAL		RCAL		LCAL
			X1	Y1	Z1	X2	Y2	Z2	X3	Y3	Z3	X4	Y4	Z4	X5	Y5	Z5	X6	Y6	Z6	X7	Y7	Z7	X8	Y8	Z8	X9	Y9	Z9	X10	Y10	Z10	X11	Y11	Z11	X12	Y12	Z12	X13	Y13	Z13	X14	Y14	Z14	X15	Y15	Z15	X16	Y16	Z16	X17	Y17	Z17	X18	Y18	Z18	X19	Y19	Z19	X20	Y20	Z20	X21	Y21	Z21	X22	Y22	Z22	X23	Y23	Z23	X24	Y24	Z24	X25	Y25	Z25	X26	Y26	Z26	X27	Y27	Z27	X28	Y28	Z28	X29	Y29	Z29	X30	Y30	Z30	X31	Y31	Z31	X32	Y32	Z32	X33	Y33	Z33	X34	Y34	Z34	X35	Y35	Z35	X36	Y36	Z36	X37	Y37	Z37	X38	Y38	Z38	X39	Y39	Z39	X40	Y40	Z40	X41	Y41	Z41	X42	Y42	Z42	X43	Y43	Z43	X44	Y44	Z44	X45	Y45	Z45	X46	Y46	Z46	X47	Y47	Z47	X48	Y48	Z48	X49	Y49	Z49	X50	Y50	Z50	X51	Y51	Z51	X52	Y52	Z52	X53	Y53	Z53	X54	Y54	Z54	X55	Y55	Z55	X56	Y56	Z56	X57	Y57	Z57	X58	Y58	Z58	X59	Y59	Z59

482	2.41	735.06	1582.3	-83.085	587.99	1403.8	-48.685	717.89	1330.2	-52.505	800.83	1107.7	-44.417	550.48	1299.3	53.673	754.22	928.34	-160.05	750.85	925.78	94.644	667.91	1344.5	120.11	662.62	1136.4	190.65	650.34	1029.6	220.61	748.92	908.27	212.18	756.25	795.49	219.07	813.74	774.78	211.73	654.66	1336.2	-222.36	601.82	887.68	-282.98	585.23	725.69	-287.61	601.35	767.82	-246.5	656.26	721.9	141.56	715.23	634.78	90.797	652.11	628.13	124.72	625.77	438.59	101.19	686.84	734.8	-205.29	751.42	563.17	-168.79	786.16	672.59	-159.75	777.96	458.14	-157.41	814.82	362.5	-77.131	806.55	175.31	-76.673	788.98	269.76	-148.09	812.76	267.11	-80.824	918.24	38.389	-76.94	962.61	29.723	-101.39	783.87	73.99	-42.15	562.85	1119.8	-34.003	799.68	821.13	165.04	881.04	20.621	-155.92	719.42	645.08	-187.45	742.59	1585.6	-10.324	770.28	60.457	-122.67	649.52	534.98	112.2	534.14	960.59	-80.168	535.3	960.18	35.66	578.3	1525.4	28.329	558.93	1005.7	-198.42	360.15	47.84	49.873	610.16	1130	-261.33	565.8	324.42	42.671	328.63	180.58	39.099	570.04	1531	-98.257	574.42	1015.6	-267.66	487.8	290.32	120.44	488.73	272.93	51.081	546.55	777.4	-293.92	321.14	53.393	125.91	632.45	1003.3	139.69	412.91	220.75	58.895	385.2	27.649	77.887	307.67	184.82	117.63	255.73	204.08	74.23	720.66	27.523	-70.731
483	2.415	740.84	1582.9	-83.822	593.65	1404.5	-49.584	723.51	1330.9	-53.224	806.24	1108.3	-45.138	556.02	1300.1	52.857	759.58	928.89	-160.76	756.54	926.81	93.601	673.45	1345.3	119.27	667.13	1137.1	189.71	654.08	1030.3	219.46	752.07	908.41	211.7	758.58	795.59	218.72	816	774.44	211.73	660.67	1336.9	-223.15	609.4	888.18	-283.57	593.38	726.17	-288.03	608.95	768.47	-246.9	663.19	722.4	140.66	723.55	635.91	90.4	660.3	628.51	123.94	636.69	439.17	100.88	691.56	735	-205.98	755.44	563.16	-169.28	790.73	672.43	-160.62	781.52	458.03	-157.79	817.66	362.2	-77.442	807.6	175.06	-76.743	790.93	269.55	-148.32	814.69	266.82	-81.008	918.18	38.378	-76.852	962.79	29.682	-101.5	783.92	73.982	-42.115	568.24	1120.6	-34.868	802.57	820.88	164.93	881.02	20.715	-155.9	723.78	645.19	-188.01	748.3	1586.2	-11.053	770.34	60.481	-122.63	659.02	535.32	111.69	539.49	961.22	-80.934	540.57	960.72	34.855	583.95	1526.1	27.451	565.28	1006.4	-199.67	365.66	49.794	50.336	616.89	1130.6	-262.28	576.37	325.59	42.498	337.79	184.13	39.365	575.81	1531.7	-99.155	581.42	1016.1	-268.92	498.05	292.36	120.4	498.71	274.88	51.05	554.55	777.7	-294.77	326.91	56.781	125.82	636.88	1004.3	138.33	422.42	223.43	58.996	389.48	28.53	78.168	316.73	188.83	117.87	265.2	209.24	74.442	720.64	27.503	-70.708
484	2.42	746.61	1583.6	-84.525	599.26	1405.2	-50.46	729.07	1331.5	-53.917	811.61	1109	-45.824	561.49	1300.9	52.035	764.84	929.43	-161.49	762.16	927.91	92.693	678.91	1346.1	118.47	671.58	1137.8	188.8	657.78	1031	218.33	755.15	908.54	211.25	760.84	795.69	218.38	818.2	774.09	211.72	666.62	1337.7	-223.91	617.05	888.69	-284.14	601.65	726.65	-288.44	616.63	769.12	-247.29	670.08	722.99	139.81	731.83	637.14	90.077	668.42	628.99	123.2	647.57	439.89	100.57	696.24	735.19	-206.65	759.36	563.13	-169.76	795.21	672.25	-161.43	784.94	457.88	-158.17	820.38	361.88	-77.746	808.58	174.82	-76.819	792.83	269.34	-148.55	816.53	266.52	-81.189	918.12	38.384	-76.791	962.95	29.651	-101.63	783.97	73.979	-42.095	573.6	1121.3	-35.729	805.38	820.62	164.82	881	20.787	-155.88	728.05	645.28	-188.56	754	1586.9	-11.75	770.4	60.501	-122.62	668.45	535.78	111.21	544.81	961.87	-81.696	545.82	961.3	34.046	589.59	1526.8	26.607	571.68	1006.9	-200.93	371.92	51.885	50.781	623.63	1131.2	-263.23	587.02	326.85	42.277	347.18	187.55	39.453	581.56	1532.4	-100.02	588.47	1016.7	-270.16	508.39	294.4	120.27	508.83	276.85	50.927	562.67	777.99	-295.62	333.34	60.213	125.73	641.28	1005.3	137	432.1	226.07	58.966	394.63	29.621	78.511	325.97	192.69	117.93	274.84	214.04	74.421	720.62	27.485	-70.685
485	2.425	752.37	1584.2	-85.196	604.82	1405.9	-51.312	734.57	1332.2	-54.588	816.92	1109.6	-46.475	566.89	1301.7	51.208	770	929.99	-162.24	767.71	929.08	91.919	684.3	1346.8	117.7	675.97	1138.5	187.93	661.46	1031.7	217.23	758.19	908.67	210.8	763.06	795.79	218.06	820.33	773.73	211.7	672.51	1338.4	-224.65	624.78	889.2	-284.71	610.03	727.12	-288.85	624.39	769.77	-247.65	676.93	723.66	139.01	740.06	638.46	89.83	676.48	629.58	122.49	658.42	440.75	100.26	700.88	735.4	-207.28	763.19	563.08	-170.24	799.61	672.03	-162.19	788.24	457.72	-158.54	822.99	361.56	-78.036	809.52	174.58	-76.894	794.69	269.12	-148.78	818.29	266.22	-81.36	918.06	38.399	-76.751	963.12	29.624	-101.76	784.01	73.978	-42.087	578.92	1122.1	-36.586	808.13	820.35	164.72	880.99	20.841	-155.87	732.26	645.37	-189.09	759.71	1587.5	-12.413	770.45	60.516	-122.61	677.79	536.36	110.75	550.11	962.52	-82.451	551.07	961.92	33.236	595.2	1527.5	25.798	578.12	1007.5	-202.18	378.98	54.092	51.204	630.38	1131.7	-264.16	597.73	328.2	42.008	356.78	190.83	39.367	587.29	1533.2	-100.85	595.57	1017.2	-271.39	518.8	296.44	120.06	519.05	278.84	50.715	570.89	778.27	-296.48	340.47	63.647	125.62	645.62	1006.2	135.7	441.94	228.67	58.809	400.71	30.925	78.905	335.39	196.41	117.81	284.61	218.45	74.174	720.61	27.472	-70.663
